<svg xmlns="http://www.w3.org/2000/svg" viewBox="0 0 356.682 359.026">
  <defs>
    <style>
      .cls-1 {
        fill: whitesmoke;
      }
    </style>
  </defs>
  <title>bg</title>
  <g id="Layer_2" data-name="Layer 2">
    <g id="Layer_1-2" data-name="Layer 1">
      <path class="cls-1" d="M241.608,346.414l-77.7,12.118a41.38,41.38,0,0,1-23.118-3.044L68.876,323.675a41.386,41.386,0,0,1-17.8-15.059l-43.3-65.644A41.385,41.385,0,0,1,.939,220.68L0,142.047a41.378,41.378,0,0,1,6.3-22.449L48.03,52.942A41.381,41.381,0,0,1,65.468,37.464L136.606,3.947A41.388,41.388,0,0,1,159.645.354L237.61,10.618a41.382,41.382,0,0,1,21.324,9.433l60.04,50.786A41.379,41.379,0,0,1,331.812,90.3l23.052,75.183a41.39,41.39,0,0,1,.278,23.316l-21.255,75.711a41.387,41.387,0,0,1-12.372,19.764l-58.813,52.2A41.382,41.382,0,0,1,241.608,346.414Z"/>
    </g>
  </g>
</svg>
