<svg xmlns="http://www.w3.org/2000/svg" viewBox="0 0 63.18 18.447">
  <defs>
    <style>
      .cls-1 {
        isolation: isolate;
        font-size: 6px;
        font-family: IRANSans-Bold, IRANSans;
        font-weight: 700;
      }

      .cls-1, .cls-2 {
        fill: #fff;
      }
    </style>
  </defs>
  <title>burgerText</title>
  <g id="Layer_2" data-name="Layer 2">
    <g id="Layer_1-2" data-name="Layer 1">
      <g id="Layer_1-2-2" data-name="Layer 1-2">
        <g>
          <g>
            <text class="cls-1" transform="translate(0 5.141)">تومن شارژ رایگان</text>
            <text class="cls-1" transform="translate(42.073 6.198)">۵۰۰۰</text>
          </g>
          <path class="cls-2" d="M62.633,11.881a5.653,5.653,0,0,1,.542,2.694,9.521,9.521,0,0,1-.649,3.009,12.185,12.185,0,0,1-2.753.863A12,12,0,0,0,61.3,14.079a8.42,8.42,0,0,1-2.391.776c-.2.033-.4.071-.6.092L57.81,15c-.2.019-.389.035-.583.045-.387.025-.772.032-1.155.037q-2.259,0-4.511-.15a60.64,60.64,0,0,1-17.552-3.921l.574-1.479a59.062,59.062,0,0,0,17.09,3.817q2.191.15,4.39.146c.359,0,.717-.011,1.069-.035.178-.009.353-.023.528-.04l.438-.049c.179-.019.351-.053.526-.081a6.916,6.916,0,0,0,1.939-.621,9.187,9.187,0,0,1-2.505-3.027,3.408,3.408,0,0,0,.74-.217A4.881,4.881,0,0,0,62.633,11.881Z"/>
        </g>
      </g>
    </g>
  </g>
</svg>
