<svg xmlns="http://www.w3.org/2000/svg" viewBox="0 0 461.684 72.781">
  <defs>
    <style>
      .cls-1 {
        fill: #fff;
      }
    </style>
  </defs>
  <title>cloud</title>
  <g id="Layer_2" data-name="Layer 2">
    <g id="Layer_1-2" data-name="Layer 1">
      <path class="cls-1" d="M389.154,64.492c-5.883-.611-25.7-3.445-37.476-7.356-3.3-1.1-8.932-3.685-12.577-4.151-.521-.067-1.074-.115-1.642-.152a13.243,13.243,0,0,0,1.91-8.069,7.745,7.745,0,0,0-3.781-6.165c-2.581-1.541-6.58-1.767-8.988-.114,1.754-5.684-3.625-11.929-12.052-13.994s-18.657,1.016-23.242,6c1.62-2.7,2.807-5.69,1.562-8.473s-5.7-5.143-10.079-4.462a10.555,10.555,0,0,0-5.25-4.077c-2.531-.768-6.951-.226-7.076,1.57-.126-1.838-2.292-3.543-5.071-3.99a7.247,7.247,0,0,0-6.541,2.343,23.509,23.509,0,0,0-8.487-9.476,26.76,26.76,0,0,0-15.5-3.88c-5.7.369-11.118,3.058-12.232,6.667a8.139,8.139,0,0,0-5.38.128c-1.588.649-1.225,1.746-1.125,2.952-9.144-1.021-19.014,1.287-25,5.846s-7.714,11.267-4.6,16.883a17.469,17.469,0,0,0-10.885-.894c-3.557.878-6.335,2.955-7.149,5.347-.551-1.431-2.86-2.49-5.146-2.36s-3.581.5-3.731,1.973c-8.583-8.356-26.4-12.235-41.128-8.951S94.121,41.084,95.446,51.059a35.941,35.941,0,0,0-18.2-1.981c-6.153.919-11.672,3.475-14.973,6.935-1.792,1.878-2.91,4.333-1.2,6.24-3.8-1.621-9.7-1.158-12.847.963-7.861-2.048-9.214-.757-16.951,1.478C19.682,68.045,8.483,68.045,0,68.045H25.182c27.5,0,39.879,4.6,57.055,1.742a204.35,204.35,0,0,0,71.967-.409,42.5,42.5,0,0,0,25.072.081,175.27,175.27,0,0,0,58.395-.8,23.223,23.223,0,0,0,13.565-.224c13.591,3.107,28.433,3.095,42.467.949a41.54,41.54,0,0,0,24.57-.26,115.621,115.621,0,0,0,39.878.127,51.223,51.223,0,0,0,18.591-.121,67.592,67.592,0,0,1,9.4-1.087h75.542C437.482,67.424,413.244,66.315,389.154,64.492Z"/>
    </g>
  </g>
</svg>
