<svg xmlns="http://www.w3.org/2000/svg" viewBox="0 0 288.85 235.053">
  <defs>
    <style>
      .cls-1 {
        fill: #00a293;
      }

      .cls-2, .cls-3 {
        fill: #fff;
      }

      .cls-2 {
        opacity: 0.97;
        isolation: isolate;
      }
    </style>
  </defs>
  <title>contact</title>
  <g id="Layer_2" data-name="Layer 2">
    <g id="Layer_1-2" data-name="Layer 1">
      <g>
        <path class="cls-1" d="M214.361,80.715a28.318,28.318,0,0,1-11.053-24.224q.042-.773.041-1.556c0-18.477-17.227-33.457-38.478-33.457a43.7,43.7,0,0,0-12.006,1.663,28.45,28.45,0,0,1-25.848-5.234C113.532,6.814,95.28,0,75.175,0,33.657,0,0,29.034,0,64.848c0,24.537,15.8,45.88,39.1,56.891a28.21,28.21,0,0,1,16.244,25.676c0,.088,0,.176,0,.264,0,48.255,43.35,87.374,96.824,87.374S249,195.934,249,147.679C249,120.79,235.534,96.742,214.361,80.715Z"/>
        <circle class="cls-1" cx="275.171" cy="146.894" r="13.678"/>
        <path id="path" class="cls-2" d="M97.741,68.453c10.516-10.516,22.785-15.19,37.39-15.19s26.874,5.258,37.389,15.19,15.19,22.784,15.19,37.389v58.421a17.97,17.97,0,0,1-17.527,17.527H135.131V170.105h40.894v-5.842H152.657V117.526h23.369V105.842a40.312,40.312,0,1,0-80.622,0v11.684h23.369v46.737H101.247A17.97,17.97,0,0,1,83.72,146.737V105.842C82.552,91.237,87.81,78.969,97.741,68.453Z"/>
        <g>
          <path class="cls-3" d="M282.171,152.894h-14a1,1,0,0,1-1-1v-10a1,1,0,0,1,1-1h14a1,1,0,0,1,1,1v10A1,1,0,0,1,282.171,152.894Zm-13-2h12v-8h-12Z"/>
          <path class="cls-3" d="M275.171,148.894a1,1,0,0,1-.5-.132l-7-4a1,1,0,0,1,.992-1.736l6.5,3.716,6.5-3.716a1,1,0,1,1,.992,1.736l-7,4A1,1,0,0,1,275.171,148.894Z"/>
        </g>
        <circle class="cls-1" cx="217.405" cy="27.167" r="13.678"/>
        <path class="cls-3" d="M221.21,35.167c-1.942,0-4.966-2.334-6.965-4.334-.621-.621-6-6.126-3.827-8.3l2.75-3.036a1.006,1.006,0,0,1,.722-.329,1.059,1.059,0,0,1,.734.3l3,3.06a1,1,0,0,1,.194,1.12l-.881,1.909a4.7,4.7,0,0,0,1.084,1.5,4.758,4.758,0,0,0,1.5,1.087l1.907-.881a1,1,0,0,1,1.119.194l3.061,3a1.009,1.009,0,0,1,.3.734,1,1,0,0,1-.33.721l-3.06,2.773A1.8,1.8,0,0,1,221.21,35.167Zm-9.3-11.3c-.043.631,1.121,2.918,3.753,5.55,2.585,2.585,4.8,3.748,5.551,3.748h0l2.238-2.028-1.811-1.775-1.207.557a1.417,1.417,0,0,1-.826.246c-1.2,0-2.6-1.3-3-1.7s-1.7-1.791-1.7-3a1.424,1.424,0,0,1,.246-.828l.557-1.206-1.775-1.81Z"/>
      </g>
    </g>
  </g>
</svg>
