<svg xmlns="http://www.w3.org/2000/svg" viewBox="0 0 161.106 150.482">
  <defs>
    <style>
      .cls-1 {
        fill: #fff;
      }

      .cls-2 {
        fill: none;
        stroke: #fff;
        stroke-linecap: round;
        stroke-miterlimit: 10;
        stroke-width: 4px;
      }
    </style>
  </defs>
  <title>key</title>
  <g id="Layer_2" data-name="Layer 2">
    <g id="Layer_1-2" data-name="Layer 1">
      <g>
        <g>
          <path class="cls-1" d="M149.045,8.108c2.1-1.958,2.441-5.014.754-6.825h0c-1.686-1.81-4.758-1.69-6.861.268L46.789,91.1c-2.1,1.958-2.441,5.014-.754,6.825h0c1.686,1.81,4.758,1.69,6.861-.268Z"/>
          <path class="cls-1" d="M116.081,42.642a2.64,2.64,0,0,0,.385-3.7l-6.893-7.4a2.64,2.64,0,0,0-3.714.121h0a2.641,2.641,0,0,0-.384,3.7l6.892,7.4a2.64,2.64,0,0,0,3.714-.121Z"/>
          <path class="cls-1" d="M82.979,73.668a2.315,2.315,0,0,0,.352-3.238l-7.223-7.756a2.316,2.316,0,0,0-3.255.122h0a2.316,2.316,0,0,0-.352,3.237l7.224,7.756a2.316,2.316,0,0,0,3.254-.121Z"/>
          <path class="cls-1" d="M77.857,78.438a2.316,2.316,0,0,0,.352-3.237l-7.224-7.756a2.316,2.316,0,0,0-3.254.121h0a2.315,2.315,0,0,0-.352,3.238L74.6,78.56a2.316,2.316,0,0,0,3.255-.122Z"/>
          <path class="cls-1" d="M72.624,84.48a2.905,2.905,0,0,0,.146-4.107L65.44,72.5a2.907,2.907,0,0,0-4.107-.146h0a2.907,2.907,0,0,0-.146,4.107l7.331,7.871a2.9,2.9,0,0,0,4.106.146Z"/>
          <path class="cls-1" d="M64.66,123.172A17.017,17.017,0,0,0,50.889,93.836a17.02,17.02,0,1,0-30.043,7.183,17.026,17.026,0,1,0,20.746,22.275A17.046,17.046,0,0,0,64.66,123.172ZM41.452,98.254c-.18.168-.354.341-.525.515a10.673,10.673,0,1,1,1.076-1C41.817,97.925,41.633,98.086,41.452,98.254ZM32.92,125.159a10.674,10.674,0,1,1,.536-15.086A10.687,10.687,0,0,1,32.92,125.159Zm12.893-22.223c.181-.168.354-.341.525-.514a10.673,10.673,0,1,1-1.076,1C45.448,103.265,45.633,103.1,45.813,102.936Z"/>
          <rect class="cls-1" x="118.467" y="23.428" width="30.466" height="5.61" transform="translate(17.982 98.158) rotate(-42.964)"/>
          <path class="cls-1" d="M134,48.909l3.279-3.054-.014-.014a4.533,4.533,0,0,0-6.156-6.61l-.014-.015-3.278,3.054-4.81-5.164,22.3-20.764,4.809,5.164-3.525,3.282.021.022a4.535,4.535,0,0,0,6.143,6.6l.02.021,3.524-3.282,4.81,5.164L138.811,54.073Z"/>
        </g>
        <line class="cls-2" x1="13.192" y1="72.116" x2="2" y2="68.232"/>
        <line class="cls-2" x1="22.651" y1="66.775" x2="15.473" y2="57.35"/>
        <line class="cls-2" x1="38.538" y1="66.627" x2="38.538" y2="47.636"/>
        <line class="cls-2" x1="82.46" y1="139.782" x2="74.242" y2="128.017"/>
        <line class="cls-2" x1="45.472" y1="148.482" x2="44.28" y2="133.267"/>
        <line class="cls-2" x1="62.855" y1="142.924" x2="59.727" y2="132.798"/>
      </g>
    </g>
  </g>
</svg>
