<svg xmlns="http://www.w3.org/2000/svg" viewBox="0 0 113.536 128.518">
  <defs>
    <style>
      .cls-1, .cls-3 {
        fill: none;
      }

      .cls-1 {
        stroke: #f1f2f2;
        stroke-linecap: round;
        stroke-miterlimit: 10;
        stroke-width: 0.75px;
      }

      .cls-2 {
        fill: #00a293;
      }
    </style>
  </defs>
  <title>stopwatch</title>
  <g id="Layer_2" data-name="Layer 2">
    <g id="Layer_1-2" data-name="Layer 1">
      <g>
        <g>
          <g>
            <line class="cls-1" x1="84.099" y1="46.834" x2="81.399" y2="51.511"/>
            <line class="cls-1" x1="97.917" y1="60.045" x2="93.241" y2="62.745"/>
            <line class="cls-1" x1="103.279" y1="78.395" x2="97.879" y2="78.395"/>
            <line class="cls-1" x1="98.747" y1="96.967" x2="94.071" y2="94.267"/>
            <line class="cls-1" x1="85.537" y1="110.785" x2="82.837" y2="106.109"/>
            <line class="cls-1" x1="67.187" y1="116.147" x2="67.187" y2="110.747"/>
            <line class="cls-1" x1="48.614" y1="111.616" x2="51.314" y2="106.939"/>
            <line class="cls-1" x1="34.796" y1="98.405" x2="39.472" y2="95.705"/>
            <line class="cls-1" x1="29.434" y1="80.055" x2="34.834" y2="80.055"/>
            <line class="cls-1" x1="33.966" y1="61.482" x2="38.642" y2="64.182"/>
            <line class="cls-1" x1="47.176" y1="47.664" x2="49.877" y2="52.341"/>
            <line class="cls-1" x1="65.526" y1="42.302" x2="65.526" y2="47.702"/>
          </g>
          <path class="cls-2" d="M69.673,32.707V23.846h5.911a6.381,6.381,0,0,0,6.382-6.381V6.382A6.382,6.382,0,0,0,75.584,0H55.3a6.382,6.382,0,0,0-6.382,6.382V17.465A6.381,6.381,0,0,0,55.3,23.846h5.911v8.875A47.812,47.812,0,0,0,32.4,45.814l-7.674-6.621,2.693-3.122a5.522,5.522,0,0,0-.574-7.788l-6.8-5.866a5.52,5.52,0,0,0-7.787.574L1.341,35.639a5.522,5.522,0,0,0,.574,7.788l6.8,5.867a5.521,5.521,0,0,0,7.788-.575L19.2,45.6l7.615,6.569A48,48,0,1,0,69.673,32.707Zm-4.137,88.619a40.808,40.808,0,1,1,40.808-40.808A40.808,40.808,0,0,1,65.536,121.326Z"/>
        </g>
        <g>
          <path class="cls-2" d="M65.521,74.179a7.19,7.19,0,1,0,7.19,7.189A7.189,7.189,0,0,0,65.521,74.179Zm0,12.427a5.238,5.238,0,1,1,5.238-5.238A5.238,5.238,0,0,1,65.521,86.606Z"/>
          <rect class="cls-2" x="64.491" y="54.573" width="2.062" height="21.192" rx="1.031"/>
          <animateTransform attributeName="transform"
                            attributeType="XML"
                            type="rotate"
                            from="0 65.522 81.368"
                            to="360 65.522 81.368"
                            dur="60s"
                            repeatCount="indefinite"/>
        </g>
      </g>
      <circle class="cls-3" cx="65.522" cy="81.368" r="7.189"/>
    </g>
  </g>
</svg>
