<svg xmlns="http://www.w3.org/2000/svg" viewBox="0 0 107.999 108">
  <defs>
    <style>
      .cls-1 {
        fill: #008bcd;
      }

      .cls-2, .cls-3 {
        fill: #fff;
      }

      .cls-3 {
        opacity: 0.1;
      }
    </style>
  </defs>
  <title>telegram</title>
  <g id="Layer_2" data-name="Layer 2">
    <g id="Design">
      <g>
        <path class="cls-1" d="M108,54A54,54,0,1,1,54,0a54,54,0,0,1,54,54Z"/>
        <path class="cls-2" d="M76.946,30.078,24.6,50.476a1.911,1.911,0,0,0,.153,3.613l13.3,3.926,4.963,15.754a2.284,2.284,0,0,0,3.81.911L53.7,67.655l13.5,9.909a2.814,2.814,0,0,0,4.42-1.7L80.559,33.14a2.692,2.692,0,0,0-3.613-3.062Zm-6.563,9.484-24.316,21.5a1.307,1.307,0,0,0-.433.833L44.7,70.217a.253.253,0,0,1-.493.047L40.354,57.853a1.312,1.312,0,0,1,.559-1.5L69.629,38.548a.634.634,0,0,1,.754,1.014Z"/>
        <path class="cls-3" d="M54,0A54,54,0,0,0,.525,46.536c6.572-3.293,14.516-3.9,24.09-.464,27.18,9.06,53.538,28.789,81.307,22.752A53.993,53.993,0,0,0,54,0Z"/>
      </g>
    </g>
  </g>
</svg>
