<svg xmlns="http://www.w3.org/2000/svg" viewBox="0 0 52.29 21.365">
  <defs>
    <style>
      .cls-1, .cls-2 {
        fill: #fff;
      }

      .cls-2 {
        font-size: 6px;
        font-family: IRANSans-Bold, IRANSans;
        font-weight: 700;
      }
    </style>
  </defs>
  <title>text</title>
  <g id="Layer_2" data-name="Layer 2">
    <g id="Layer_1-2" data-name="Layer 1">
      <g>
        <path class="cls-1" d="M32.362.07A11.37,11.37,0,0,1,34.51,3.9a14.055,14.055,0,0,1-1.243,1.636,12.029,12.029,0,0,0-1.141-3.464,10.416,10.416,0,0,1-1.534,1.955,10.525,10.525,0,0,1-3.687,2.354,9.745,9.745,0,0,1-2.512.557c-.438.045-.872.038-1.166.051a2.592,2.592,0,0,0-.965.2A2.666,2.666,0,0,0,20.95,8.612a5.912,5.912,0,0,0-.373,2.084L19.3,10.655a7.169,7.169,0,0,1,.5-2.622,3.875,3.875,0,0,1,1.882-2.017,7.737,7.737,0,0,1,2.607-.355,8.459,8.459,0,0,0,2.175-.482,9.25,9.25,0,0,0,3.228-2.061,9.088,9.088,0,0,0,1.337-1.706A9.76,9.76,0,0,1,27.849.72,7.025,7.025,0,0,0,28.4,0,9.383,9.383,0,0,0,32.362.07Z"/>
        <g>
          <text class="cls-2" transform="translate(0 17.674)">تومن شارژ رایگان</text>
          <text class="cls-2" transform="translate(41.224 17.674)">۵۰۰۰</text>
        </g>
      </g>
    </g>
  </g>
</svg>
