<svg xmlns="http://www.w3.org/2000/svg" xmlns:xlink="http://www.w3.org/1999/xlink" viewBox="0 0 205.3 189.488">
  <defs>
    <style>
      .cls-1 {
        fill: none;
      }

      .cls-2 {
        fill: #50c2ba;
      }

      .cls-3 {
        clip-path: url(#clip-path);
      }

      .cls-4 {
        fill: #23a191;
      }

      .cls-5 {
        fill: #fff;
      }
    </style>
    <clipPath id="clip-path" transform="translate(0 0)">
      <circle class="cls-1" cx="110.735" cy="94.565" r="94.565" transform="translate(-34.434 105.999) rotate(-45)"/>
    </clipPath>
  </defs>
  <title>tunnelView</title>
  <g id="Layer_2" data-name="Layer 2">
    <g id="Layer_1-2" data-name="Layer 1">
      <g>
        <circle class="cls-2" cx="110.735" cy="94.565" r="94.565" transform="translate(-34.434 105.999) rotate(-45)"/>
        <g class="cls-3">
          <path class="cls-4" d="M162.683,97.152C158.311,68.584,139.1,47,116.134,47,96.369,47,79.391,62.989,72.253,85.655,116.457,82.669,144.818,87.92,162.683,97.152Z" transform="translate(0 0)"/>
          <path class="cls-5" d="M91.962,172.211c1.633-1.157,3.686-2.493,5.919-4.151,2.267-1.623,4.772-3.511,7.437-5.634,1.315-1.074,2.716-2.175,4.079-3.382,1.4-1.175,2.785-2.446,4.195-3.762a81.255,81.255,0,0,0,8.1-8.768c.61-.808,1.265-1.61,1.807-2.461l.861-1.264c.27-.43.515-.867.777-1.3a27.966,27.966,0,0,0,2.517-5.4,15.291,15.291,0,0,0-.03-10.934A22.35,22.35,0,0,0,120,116.022a56.108,56.108,0,0,0-11.111-6.294,105.556,105.556,0,0,0-11.578-4.219c-3.778-1.142-7.414-2.077-10.8-2.838-6.769-1.527-12.511-2.438-16.531-3l-.721-.1c.153-1.26.342-2.507.552-3.74l.587.047c4.125.344,10.008.948,17.032,2.133,3.511.591,7.3,1.348,11.294,2.319a111.242,111.242,0,0,1,12.439,3.78,62.515,62.515,0,0,1,12.765,6.363,34.815,34.815,0,0,1,5.928,4.907,25.344,25.344,0,0,1,4.68,6.7,21.77,21.77,0,0,1,2.052,8.215,24.984,24.984,0,0,1-.961,8.162,35.989,35.989,0,0,1-2.852,7.176c-.29.552-.568,1.113-.868,1.65s-.628,1.045-.94,1.568c-.608,1.063-1.3,2.022-1.961,3.007a90.169,90.169,0,0,1-8.515,10.309c-1.455,1.515-2.881,2.975-4.31,4.317-1.4,1.382-2.812,2.628-4.155,3.848-2.048,1.822-21.064,17.649-22.88,19.146h76.78s37.233-53.173,13.19-79.971h.248c0-43.15-28.364-78.255-63.228-78.255S52.909,66.367,52.909,109.517h.18c81.159,27.315-32.172,59.131-52.462,65.6-.218.07-.43.138-.627.2l.946.116,74.173,9.154C75.911,184.072,89.658,173.738,91.962,172.211ZM116.134,47c22.968,0,42.177,21.581,46.549,50.149-17.865-9.232-46.226-14.483-90.43-11.5C79.391,62.989,96.369,47,116.134,47Z" transform="translate(0 0)"/>
        </g>
      </g>
    </g>
  </g>
</svg>
