<svg xmlns="http://www.w3.org/2000/svg" viewBox="0 0 108 108">
  <defs>
    <style>
      .cls-1 {
        fill: #2bb24a;
      }

      .cls-2, .cls-3 {
        fill: #fff;
      }

      .cls-3 {
        opacity: 0.1;
      }
    </style>
  </defs>
  <title>whatsapp</title>
  <g id="Layer_2" data-name="Layer 2">
    <g id="Design">
      <g>
        <path class="cls-1" d="M108,54A54,54,0,1,1,54,0a54,54,0,0,1,54,54Z"/>
        <path class="cls-2" d="M55.164,80.105a27.867,27.867,0,0,1-13.121-3.27L26.621,81.013l4.506-14.6A27.947,27.947,0,1,1,55.164,80.105Zm0-51.329A23.388,23.388,0,0,0,36.117,65.724l-2.693,8.717,8.93-2.415.328-.092A23.384,23.384,0,1,0,55.164,28.776ZM69.387,59.448c-.147,1.066-.533,5.192-6.26,5.63,0,0-5.537.193-11.746-4.611a33.449,33.449,0,0,1-8.147-9.355c-.1-.175-.2-.344-.285-.507a10.53,10.53,0,0,1-1.291-5.045c0-.192,0-.394.016-.605A5.967,5.967,0,0,1,45.363,39.6s2.278-.338,2.666,0l2.528,5.677a2.065,2.065,0,0,1,0,2.285c-.827,1.018-1.5,1.793-1.5,1.793s-.733.534,0,1.6,3.732,5.682,8.924,7.718a1.718,1.718,0,0,0,2.285-.874l1.648-2.134s.389-.535,1.652,0,5.243,2.473,5.243,2.473.724.243.582,1.312Z"/>
        <path class="cls-3" d="M54,0A54,54,0,0,0,.525,46.536c6.573-3.293,14.516-3.9,24.09-.464,27.18,9.06,53.539,28.789,81.309,22.752A54,54,0,0,0,54,0Z"/>
      </g>
    </g>
  </g>
</svg>
